<?xml version="1.0" encoding="utf-8"?>
<!-- Generator: Adobe Illustrator 23.0.2, SVG Export Plug-In . SVG Version: 6.00 Build 0)  -->
<svg version="1.1" id="Layer_1" xmlns="http://www.w3.org/2000/svg" xmlns:xlink="http://www.w3.org/1999/xlink" x="0px" y="0px"
	 viewBox="0 0 270 227.165" enable-background="new 0 0 270 227.165" xml:space="preserve">
<g>
	<path d="M109.8583,25.5077c-0.8627-0.313-1.6173-0.8345-2.2087-1.5024H0v22.5h114.9823
		C110.2899,40.7822,108.2311,33.0658,109.8583,25.5077z"/>
	<path d="M158.8562,29.5915c0.1326,2.7027-0.1776,5.4636-0.982,8.1814c-0.9752,3.2955-2.5797,6.2365-4.6422,8.7324H270v-22.5
		H162.9354c0.0159,0.2614,0.03,0.5234,0.0071,0.7919C162.7401,27.1624,161.0387,29.0417,158.8562,29.5915z"/>
	<path d="M77.9433,207.3891c-3.8115,5.7559-2.2358,13.5127,3.52,17.3242c2.124,1.4063,4.52,2.0791,6.8901,2.0791
		c4.0527,0,8.0283-1.9668,10.4336-5.5986c14.0139-21.1614,18.4388-40.5755,18.5069-56.5769l-29.6124-24.0112
		C93.4289,154.954,96.9203,178.7342,77.9433,207.3891z"/>
	<path d="M123.4739,166.6684l16.3965,51.7676c1.6875,5.3262,6.6094,8.7295,11.9141,8.729c1.25,0,2.5225-0.1895,3.7773-0.5869
		c6.5811-2.0845,10.2266-9.1099,8.1426-15.6909l-17.5264-55.3335c-0.7373-2.3262-2.1387-4.3862-4.0322-5.9253l-35.1003-28.5322
		l0.0045-0.0023c0.7218-2.7611,1.6132-5.5213,2.641-8.2593c-0.8145-1.3437-1.3217-2.8629-1.4558-4.4734l-3-36
		c-0.4707-5.6602,3.75-10.6484,9.4092-11.1201c0.2891-0.0234,0.5693-0.0342,0.8467-0.0342c5.3193,0,9.832,4.1484,10.2734,9.4434
		l0.7751,9.3029c0.3273-0.5674,0.6563-1.1373,0.9691-1.6853c1.9864-2.8661,3.3146-6.1831,3.9432-9.5035l24.3699,5.2294
		c0.5615,0.1206,1.1245,0.1792,1.6812,0.1792c3.0713,0,5.9395-1.7764,7.2651-4.6577l9.5268-20.71h-17.6119l-3.7719,8.1997
		l-11.7327-2.5175c-4.4576,1.3372-9.3367,1.4443-14.1228,0.0278c-0.5961-0.1768-1.1917-0.3774-1.7706-0.5967
		c-2.6014-0.9857-4.946-2.3783-6.9893-4.0779c-7.0244-0.7346-15.4898,2.0466-22.1127,10.6417
		c-12.8952,16.9399-18.4787,28.9163-23.1284,50.7925c-0.6518,4.8584-0.2161,8.7137,0.9399,11.8153
		c0.6111,2.5938,2.04,5.016,4.2676,6.8268l4.6055,3.7437L123.4739,166.6684z"/>
	<path d="M127.7083,52.3092c11.9167,3.527,24.4337-3.2735,27.9604-15.1893c0.7333-2.4775,1.014-4.9801,0.9013-7.4234
		l-44.4433-3.8027C109.5957,37.3281,116.3075,48.9349,127.7083,52.3092z"/>
	<path d="M111.4384,23.5268l45.8326,3.9216c1.7125,0.1465,3.2335-1.1348,3.38-2.8472c0.1465-1.7125-1.1347-3.2335-2.8472-3.3801
		l-1.3923-0.1191c-0.3126-10.9003-8.7574-20.0696-19.8828-21.0215c-11.1254-0.952-21.0051,6.6495-23.165,17.3382l-1.3924-0.1191
		c-1.7125-0.1465-3.2335,1.1348-3.38,2.8472C108.4447,21.8592,109.726,23.3802,111.4384,23.5268z"/>
	<path d="M114.8358,63.5331c-4.4033,0.3672-7.6748,4.2344-7.3086,8.6367l3,36c0.1758,2.1074,1.1787,4.0596,2.7891,5.4297l33.5,28.5
		c1.5049,1.2803,3.3467,1.9063,5.1797,1.9063c2.2646,0,4.5146-0.9561,6.0977-2.8164c2.8623-3.3652,2.4551-8.4141-0.9102-11.2773
		l-30.9854-26.3604l-2.7256-32.71C123.1053,66.4383,119.2449,63.1786,114.8358,63.5331z"/>
</g>
</svg>
